<svg xmlns="http://www.w3.org/2000/svg" viewBox="0 0 32 32">
  <style>
    path { fill: #161616; }
    @media (prefers-color-scheme: dark) {
      path { fill: #f5f5f5; }
    }
  </style>
  <g transform="translate(0 8)">
    <path d="M15.5 16H3a3 3 0 0 1-3-3V3a3 3 0 0 1 3-3h12.5v16ZM5 4a1 1 0 0 0 0 2h5.5a1 1 0 1 0 0-2H5Zm0 3.5a1 1 0 0 0 0 2h5.5a1 1 0 1 0 0-2H5ZM5 11a1 1 0 1 0 0 2h3a1 1 0 1 0 0-2H5Z"/>
    <path opacity=".4" d="M29 0a3 3 0 0 1 3 3v10a3 3 0 0 1-3 3H16.5V0H29Zm-8.5 4a1 1 0 0 0-1 1v6a1 1 0 1 0 2 0V5a1 1 0 0 0-1-1Zm7 3a1 1 0 0 0-1 1v3a1 1 0 1 0 2 0V8a1 1 0 0 0-1-1Zm-3.5-1.5a1 1 0 0 0-1 1V11a1 1 0 1 0 2 0V6.5a1 1 0 0 0-1-1Z"/>
  </g>
</svg>
